<?xml version="1.0" encoding="utf-8"?>
<!-- Generator: Adobe Illustrator 25.2.3, SVG Export Plug-In . SVG Version: 6.00 Build 0)  -->
<svg version="1.1" id="Capa_1" xmlns="http://www.w3.org/2000/svg" xmlns:xlink="http://www.w3.org/1999/xlink" x="0px" y="0px"
	 viewBox="0 0 511 511" style="enable-background:new 0 0 511 511;" xml:space="preserve">
<style type="text/css">
	.st0{fill:#FFFFFF;}
</style>
<g>
	<path class="st0" d="M509.7,150.2c-1.2-27.2-5.6-45.8-11.9-62c-6.5-17.2-16.5-32.5-29.5-45.3c-12.8-13-28.3-23.1-45.2-29.4
		c-16.3-6.3-34.8-10.7-62-11.9C333.7,0.3,325,0,255.6,0c-69.4,0-78.1,0.3-105.3,1.5c-27.2,1.2-45.8,5.6-62,11.9
		C71.1,19.9,55.8,29.8,43,42.9C30,55.7,19.9,71.2,13.5,88.1c-6.3,16.3-10.7,34.8-11.9,62C0.3,177.5,0,186.2,0,255.6
		c0,69.4,0.3,78.1,1.5,105.3c1.2,27.2,5.6,45.8,11.9,62C19.9,440,30,455.4,43,468.2c12.8,13,28.3,23.1,45.2,29.4
		c16.3,6.3,34.8,10.7,62,11.9c27.2,1.2,35.9,1.5,105.3,1.5c69.4,0,78.1-0.3,105.3-1.5c27.2-1.2,45.8-5.6,62-11.9
		c34.3-13.3,61.5-40.4,74.8-74.8c6.3-16.3,10.7-34.8,11.9-62c1.2-27.3,1.5-35.9,1.5-105.3C511,186.2,510.8,177.5,509.7,150.2z
		 M311.7,140.6h107.1v30.7H311.7V140.6z M247.2,340.5c-4.7,7.7-10.6,14.2-17.7,19.4c-8,6-17.4,10.1-28.2,12.4
		c-10.9,2.2-22.6,3.3-35.3,3.3H53.4V129.2h120.7c30.5,0.5,52,9.2,64.8,26.3c7.6,10.5,11.4,23,11.4,37.6c0,15-3.8,27.2-11.5,36.3
		c-4.3,5.1-10.7,9.8-19.1,14c12.7,4.6,22.3,11.9,28.9,21.8c6.5,9.9,9.7,22,9.7,36.1C258.3,315.8,254.6,329,247.2,340.5z
		 M457.6,297.9H323c0.8,18.3,7.2,31.1,19.4,38.4c7.4,4.6,16.2,6.9,26.7,6.9c11,0,19.9-2.8,26.8-8.3c3.8-3,7.1-7.2,10-12.5h49.3
		c-1.3,10.8-7.3,21.8-17.9,33c-16.6,17.7-39.7,26.6-69.5,26.6c-24.6,0-46.3-7.5-65.1-22.4c-18.9-14.9-28.2-39.3-28.2-73
		c0-31.6,8.5-55.8,25.4-72.7c17-16.8,39-25.3,66.1-25.3c16.1,0,30.6,2.8,43.5,8.5c12.9,5.7,23.5,14.7,31.9,27
		c7.6,10.8,12.5,23.4,14.8,37.7C457.3,270.1,457.8,282.2,457.6,297.9z"/>
	<path class="st0" d="M394.6,237.6c-7.8-6.5-17.3-9.8-28.7-9.8c-12.4,0-22,3.5-28.8,10.4c-6.8,7-11.1,16.4-12.9,28.2h83.3
		C406.6,253.8,402.3,244.2,394.6,237.6z"/>
	<path class="st0" d="M189.7,271.3c-6-2.7-14.3-4.1-25-4.1h-61.5v65.7h60.7c10.8,0,19.3-1.4,25.3-4.3c11-5.4,16.4-15.6,16.4-30.8
		C205.6,284.9,200.3,276.1,189.7,271.3z"/>
	<path class="st0" d="M190.3,220.2c6.7-4.1,10.2-11.3,10.2-21.6c0-11.5-4.5-19.1-13.4-22.8c-7.7-2.6-17.6-3.8-29.5-3.8h-54.4v54.4
		h60.7C174.7,226.3,183.6,224.3,190.3,220.2z"/>
</g>
</svg>
