<?xml version="1.0" encoding="utf-8"?>
<!-- Generator: Adobe Illustrator 25.2.3, SVG Export Plug-In . SVG Version: 6.00 Build 0)  -->
<svg version="1.1" id="Capa_1" xmlns="http://www.w3.org/2000/svg" xmlns:xlink="http://www.w3.org/1999/xlink" x="0px" y="0px"
	 viewBox="0 0 511 511" style="enable-background:new 0 0 511 511;" xml:space="preserve">
<style type="text/css">
	.st0{fill:none;}
	.st1{fill:#FFFFFF;}
</style>
<g>
	<path class="st0" d="M429.5,58.6c0,0-25.4-8.3-83.3,31c-24.2-6.8-50-10.2-75.7-10.2s-51.4,3.4-75.7,10.2c-57.9-39-83.3-31-83.3-31
		c-16.6,41.6-6,72.7-3,80.2c-19.3,21.2-31,48.4-31,81.4c0,115.8,70.4,141.9,137.8,149.5c-8.7,7.6-16.6,20.8-19.3,40.5
		c-17.4,8-60.9,20.8-88.2-25c-5.7-9.1-22.7-31.4-46.5-31c-25.4,0.4-10.2,14.4,0.4,20c12.9,7.2,27.6,34.1,31,42.8
		c6.1,17,25.8,49.6,101.8,35.6c0,25.4,0.4,49.2,0.4,56.4l150.6-0.1c0-10.2,0.4-42.8,0.4-83.3c0-28.4-9.5-46.5-20.5-56
		c67.4-7.6,138.1-33.3,138.1-149.5c0-33.3-11.8-60.2-31-81.4C435.5,131.2,446.2,100.2,429.5,58.6z"/>
	<path class="st1" d="M509.7,150.2c-1.2-27.2-5.6-45.8-11.9-62c-6.5-17.2-16.5-32.5-29.5-45.3c-12.8-13-28.3-23.1-45.2-29.4
		c-16.3-6.3-34.8-10.7-62-11.9C333.7,0.3,325,0,255.6,0c-69.4,0-78.1,0.3-105.3,1.5c-27.2,1.2-45.8,5.6-62,11.9
		C71.1,19.9,55.8,29.8,43,42.9C30,55.7,19.9,71.2,13.5,88.1c-6.3,16.3-10.7,34.8-11.9,62C0.3,177.5,0,186.2,0,255.6
		c0,69.4,0.3,78.1,1.5,105.3c1.2,27.2,5.6,45.8,11.9,62C19.9,440,30,455.4,43,468.2c12.8,13,28.3,23.1,45.2,29.4
		c16.3,6.3,34.8,10.7,62,11.9c27.2,1.2,35.9,1.5,105.3,1.5c69.4,0,78.1-0.3,105.3-1.5c27.2-1.2,45.8-5.6,62-11.9
		c34.3-13.3,61.5-40.4,74.8-74.8c6.3-16.3,10.7-34.8,11.9-62c1.2-27.3,1.5-35.9,1.5-105.3C511,186.2,510.8,177.5,509.7,150.2z
		 M325.4,369.7c11,9.5,20.5,27.6,20.5,56c0,40.5-0.4,75.1-0.4,85.3L194.9,511c0-7.2-0.4-33.1-0.4-58.5c-76,14-95.7-18.6-101.8-35.6
		c-3.4-8.7-18.2-35.6-31-42.8c-10.6-5.7-25.7-19.7-0.4-20c23.8-0.4,40.9,21.9,46.5,31c27.3,45.8,70.8,32.9,88.2,25
		c2.7-19.7,10.6-32.9,19.3-40.5C148,362.1,77.5,336,77.5,220.2c0-32.9,11.7-60.2,31-81.4c-3-7.6-13.6-38.6,3-80.2
		c0,0,25.4-7.9,83.3,31c24.2-6.8,50-10.2,75.7-10.2s51.4,3.4,75.7,10.2c57.9-39.4,83.3-31,83.3-31c16.7,41.6,6,72.7,3,80.2
		c19.3,21.2,31,48.1,31,81.4C463.6,336.4,392.8,362.1,325.4,369.7z"/>
</g>
</svg>
