<?xml version="1.0" encoding="utf-8"?>
<!-- Generator: Adobe Illustrator 25.2.3, SVG Export Plug-In . SVG Version: 6.00 Build 0)  -->
<svg version="1.1" id="Capa_1" xmlns="http://www.w3.org/2000/svg" xmlns:xlink="http://www.w3.org/1999/xlink" x="0px" y="0px"
	 viewBox="0 0 511 511" style="enable-background:new 0 0 511 511;" xml:space="preserve">
<style type="text/css">
	.st0{fill:#FFFFFF;}
</style>
<g id="AaXfeb_1_">
	<g>
		<path class="st0" d="M255.5,512.5c-68.2,0-136.5,0-204.7,0C26.4,512.5,5.5,496.2,0,473c-1-4.2-1.4-8.6-1.4-12.9
			C-1.5,323.7-1.5,187.3-1.5,51c0-29.7,22.9-52.5,52.7-52.5c136.2,0,272.4,0,408.6,0c30,0,52.7,22.8,52.7,52.9
			c0,136.1,0,272.2,0,408.2c0,30.2-22.8,52.9-53.1,52.9C391.4,512.5,323.5,512.5,255.5,512.5z M281.2,435.1c0-2,0-3.8,0-5.6
			c0-42.3,0-84.5,0-126.8c0-8.3,1.6-16.1,5.9-23.3c8.8-14.7,27.6-22,43.8-16.8c16.9,5.5,27.4,20.4,27.4,39.2c0,42.5,0,85.1,0,127.6
			c0,1.8,0,3.6,0,5.6c25.9,0,51.2,0,76.8,0c0.1-1.6,0.2-3,0.2-4.3c0-46.6,0.1-93.2-0.1-139.8c0-6.4-0.4-13-1.7-19.2
			c-5.7-26.9-20.7-47.5-44.6-60.9c-30.7-17.3-61.9-15.9-90.2,5.8c-6.2,4.8-11.5,10.8-17.5,16.7c0-9.7,0-19.2,0-28.8
			c-26,0-51.3,0-76.8,0c0,77,0,153.7,0,230.6C230,435.1,255.4,435.1,281.2,435.1z M76,204.4c0,77,0,153.7,0,230.6
			c25.6,0,50.9,0,76.4,0c0-77,0-153.7,0-230.6C126.9,204.4,101.7,204.4,76,204.4z M160.3,114.3c0.2-25.4-20.8-46.5-46.2-46.5
			c-25.3,0-46.3,20.6-46.2,46.1c0.2,26.4,20.3,46.1,46.2,46.3C139.6,160.4,160.2,139.8,160.3,114.3z"/>
	</g>
</g>
</svg>
